<?xml version="1.0" encoding="utf-8"?>
<!-- Generator: Adobe Illustrator 16.0.4, SVG Export Plug-In . SVG Version: 6.00 Build 0)  -->
<!DOCTYPE svg PUBLIC "-//W3C//DTD SVG 1.1//EN" "http://www.w3.org/Graphics/SVG/1.1/DTD/svg11.dtd">
<svg fill="#e3963e" version="1.1" id="Layer_1" xmlns="http://www.w3.org/2000/svg" xmlns:xlink="http://www.w3.org/1999/xlink" x="0px" y="0px"
	 width="225px" height="100px" viewBox="0 0 160 65" enable-background="new 0 0 160 65" xml:space="preserve">
<g>
	<path fill="#fff" fill-rule="evenodd" clip-rule="evenodd" d="M28.778,37.044c-2.604,0-4.41,2.059-4.41,4.579v0.042
		c0,2.521,1.848,4.621,4.452,4.621s4.411-2.059,4.411-4.579v-0.042C33.231,39.145,31.383,37.044,28.778,37.044z"/>
	<path fill="#fff" fill-rule="evenodd" clip-rule="evenodd" d="M58.064,21.205c-1.358,0-2.226,1.064-2.226,2.353v0.027
		c0,1.288,0.938,2.38,2.254,2.38c1.372,0,2.239-1.077,2.239-2.352v-0.028C60.332,22.283,59.395,21.205,58.064,21.205z"/>
	<path fill="#fff" fill-rule="evenodd" clip-rule="evenodd" d="M151,0H9C4.029,0,0,4.029,0,9v47c0,4.971,4.029,9,9,9h142c4.971,0,9-4.029,9-9V9
		C160,4.029,155.971,0,151,0z M134.464,18.498c1.198-1.394,3.219-2.433,4.886-2.5c0.214,1.934-0.565,3.873-1.725,5.269
		c-1.159,1.395-3.06,2.479-4.92,2.336C132.451,21.708,133.392,19.733,134.464,18.498z M42.314,17.13h1.82v1.61h-1.82V17.13z
		 M44.079,19.875v7.393h-1.694v-7.393H44.079z M25.165,23.571c0-2.114,1.498-3.85,3.612-3.85c2.352,0,3.542,1.848,3.542,3.976
		c0,0.154-0.014,0.308-0.028,0.476h-5.432c0.182,1.204,1.036,1.876,2.128,1.876c0.826,0,1.414-0.308,2.002-0.882l0.994,0.882
		c-0.7,0.841-1.666,1.387-3.024,1.387c-2.142,0-3.794-1.555-3.794-3.836V23.571z M19.14,49.017h-3.193V37.759h3.193V49.017z
		 M19.224,36.519h-3.361v-2.835h3.361V36.519z M14.917,22.395v-0.028c0-2.744,2.101-5.068,5.055-5.068
		c1.708,0,2.758,0.477,3.766,1.33l-1.092,1.303c-0.756-0.645-1.498-1.051-2.744-1.051c-1.806,0-3.178,1.582-3.178,3.458v0.028
		c0,2.017,1.33,3.5,3.332,3.5c0.924,0,1.764-0.294,2.365-0.742v-1.834h-2.506v-1.498h4.172v4.116
		c-0.966,0.826-2.352,1.526-4.088,1.526C16.934,27.435,14.917,25.25,14.917,22.395z M36.613,41.665c0,4.18-3.298,7.604-7.835,7.604
		c-4.536,0-7.792-3.382-7.792-7.562v-0.042c0-4.18,3.298-7.604,7.834-7.604c4.537,0,7.793,3.382,7.793,7.562V41.665z M37.499,21.331
		h-1.988v3.626c0,0.658,0.337,0.924,0.91,0.924c0.378,0,0.714-0.084,1.051-0.252v1.387c-0.421,0.237-0.896,0.378-1.526,0.378
		c-1.246,0-2.128-0.546-2.128-2.17v-3.893h-0.938v-1.456h0.938v-2.029h1.693v2.029h1.988V21.331z M49.17,44.669
		c0,2.919-2.226,4.558-5.397,4.558c-2.227,0-4.474-0.777-6.238-2.353l1.911-2.289c1.323,1.092,2.71,1.785,4.39,1.785
		c1.323,0,2.122-0.525,2.122-1.387v-0.042c0-0.819-0.504-1.239-2.962-1.869c-2.961-0.756-4.873-1.575-4.873-4.495v-0.042
		c0-2.667,2.143-4.432,5.146-4.432c2.143,0,3.97,0.672,5.461,1.869l-1.681,2.437c-1.302-0.903-2.583-1.449-3.822-1.449
		s-1.891,0.567-1.891,1.281v0.042c0,0.967,0.63,1.281,3.172,1.933c2.982,0.777,4.662,1.849,4.662,4.411V44.669z M49.763,21.331
		h-1.988v3.626c0,0.658,0.336,0.924,0.91,0.924c0.378,0,0.714-0.084,1.05-0.252v1.387c-0.42,0.237-0.896,0.378-1.525,0.378
		c-1.246,0-2.128-0.546-2.128-2.17v-3.893h-0.938v-1.456h0.938v-2.029h1.693v2.029h1.988V21.331z M62.026,23.584
		c0,2.101-1.68,3.851-3.962,3.851c-2.254,0-3.92-1.723-3.92-3.822v-0.028c0-2.113,1.68-3.863,3.948-3.863
		c2.268,0,3.934,1.722,3.934,3.836V23.584z M69.824,27.267h-1.693v-4.2c0-1.148-0.574-1.806-1.582-1.806
		c-0.98,0-1.666,0.686-1.666,1.834v4.172h-1.694v-7.393h1.694v1.148c0.476-0.7,1.161-1.302,2.31-1.302
		c1.666,0,2.632,1.119,2.632,2.842V27.267z M143.966,44.885c-1.381,2.012-2.811,4.016-5.07,4.059
		c-2.222,0.045-2.938-1.305-5.477-1.302s-3.331,1.273-5.432,1.357c-2.183,0.085-3.846-2.167-5.241-4.168
		c-2.855-4.093-5.042-11.569-2.125-16.624c1.448-2.509,4.04-4.1,6.856-4.144c2.142-0.043,4.167,1.428,5.476,1.426
		c1.31-0.001,3.764-1.778,6.348-1.521c1.081,0.046,4.116,0.43,6.07,3.265c-0.156,0.097-3.621,2.108-3.575,6.285
		c0.051,4.992,4.411,6.648,4.461,6.67C146.217,40.304,145.562,42.557,143.966,44.885z"/>
	<path fill="#fff" fill-rule="evenodd" clip-rule="evenodd" d="M28.764,21.107c-1.036,0-1.765,0.798-1.918,1.946h3.794
		C30.527,21.96,29.884,21.107,28.764,21.107z"/>
</g>
</svg>
