<?xml version="1.0" encoding="utf-8"?>
<!-- Generator: Adobe Illustrator 16.0.4, SVG Export Plug-In . SVG Version: 6.00 Build 0)  -->
<!DOCTYPE svg PUBLIC "-//W3C//DTD SVG 1.1//EN" "http://www.w3.org/Graphics/SVG/1.1/DTD/svg11.dtd">
<svg version="1.1" id="Layer_1" xmlns="http://www.w3.org/2000/svg" xmlns:xlink="http://www.w3.org/1999/xlink" x="0px" y="0px"
	 width="130px" height="200px" viewBox="0 0 130 200" enable-background="new 0 0 130 200" xml:space="preserve">
<ellipse opacity="0.15" fill="#595959" enable-background="new    " cx="65" cy="151.024" rx="45" ry="6.857"/>
<path fill="#FFFFFF" d="M32.922,118.881c1.2,26.289,18.65,34.544,32.399,34.544c13.369,0,31.248-9.004,32.433-34.544H32.922z"/>
<path fill="#FFFFFF" d="M97.755,61.404c0.11-2.371,0.128-4.829-0.067-7.492C96.5,37.836,85.626,10,65.322,10
	c-18.616,0-31.337,27.843-32.361,43.912c-0.172,2.667-0.148,5.124-0.038,7.492H97.755z"/>
<path fill="#FF5722" d="M78.803,75.277c-4.865-2.254-11.227-0.134-13.474,4.715c-2.251-4.849-8.612-6.969-13.475-4.715
	c-5.175,2.398-7.649,8.533-3.56,15.775c2.904,5.148,8.052,9.031,17.035,15.987c8.983-6.956,14.13-10.839,17.034-15.987
	C86.453,83.81,83.975,77.676,78.803,75.277z"/>
<g enable-background="new    ">
	<path fill="#FFFFFF" d="M16.961,174.315h2.561v2.161h-2.561V174.315z M17.025,177.421h2.433V186h-2.433V177.421z"/>
	<path fill="#FFFFFF" d="M22.145,183.567v-4.066h-1.024v-2.08h1.024v-2.193h2.433v2.193h2.017v2.08h-2.017v3.666
		c0,0.561,0.24,0.832,0.785,0.832c0.448,0,0.848-0.112,1.2-0.304v1.952c-0.512,0.305-1.104,0.497-1.92,0.497
		C23.153,186.145,22.145,185.552,22.145,183.567z"/>
	<path fill="#FFFFFF" d="M27.952,178.941c1.104-0.112,1.649-0.673,1.569-1.585h-0.993v-2.561h2.593v2.16
		c0,2.113-1.057,2.962-2.961,2.993L27.952,178.941z"/>
	<path fill="#FFFFFF" d="M32.208,184.863l1.041-1.601c0.928,0.673,1.905,1.024,2.705,1.024c0.705,0,1.024-0.256,1.024-0.64v-0.032
		c0-0.528-0.833-0.704-1.777-0.992c-1.2-0.353-2.561-0.913-2.561-2.577v-0.032c0-1.745,1.409-2.721,3.138-2.721
		c1.088,0,2.272,0.367,3.201,0.992l-0.929,1.681c-0.848-0.496-1.696-0.801-2.321-0.801c-0.592,0-0.896,0.256-0.896,0.593v0.031
		c0,0.48,0.816,0.705,1.745,1.024c1.2,0.4,2.593,0.977,2.593,2.546v0.031c0,1.905-1.424,2.77-3.281,2.77
		C34.689,186.16,33.345,185.76,32.208,184.863z"/>
	<path fill="#FFFFFF" d="M45.2,183.535v-0.032c0-1.873,1.425-2.737,3.458-2.737c0.864,0,1.489,0.145,2.097,0.353v-0.145
		c0-1.008-0.624-1.568-1.841-1.568c-0.928,0-1.584,0.176-2.369,0.464l-0.608-1.856c0.944-0.416,1.873-0.688,3.33-0.688
		c1.328,0,2.289,0.353,2.897,0.961c0.64,0.64,0.928,1.584,0.928,2.737V186h-2.353v-0.929c-0.592,0.656-1.408,1.089-2.593,1.089
		C46.529,186.16,45.2,185.231,45.2,183.535z M50.787,182.975v-0.432c-0.417-0.192-0.96-0.32-1.553-0.32
		c-1.041,0-1.681,0.416-1.681,1.185v0.032c0,0.656,0.544,1.04,1.329,1.04C50.018,184.479,50.787,183.855,50.787,182.975z"/>
	<path fill="#FFFFFF" d="M59.984,177.421h2.433v1.216c0.56-0.72,1.296-1.376,2.529-1.376c1.121,0,1.968,0.496,2.417,1.36
		c0.752-0.881,1.648-1.36,2.816-1.36c1.809,0,2.897,1.088,2.897,3.153V186h-2.433v-4.786c0-1.152-0.513-1.744-1.425-1.744
		c-0.913,0-1.473,0.592-1.473,1.744V186h-2.433v-4.786c0-1.152-0.512-1.744-1.424-1.744c-0.913,0-1.473,0.592-1.473,1.744V186
		h-2.433V177.421z"/>
	<path fill="#FFFFFF" d="M74.672,183.535v-0.032c0-1.873,1.425-2.737,3.457-2.737c0.865,0,1.489,0.145,2.098,0.353v-0.145
		c0-1.008-0.625-1.568-1.842-1.568c-0.928,0-1.584,0.176-2.368,0.464l-0.608-1.856c0.944-0.416,1.873-0.688,3.33-0.688
		c1.328,0,2.288,0.353,2.896,0.961c0.641,0.64,0.928,1.584,0.928,2.737V186H80.21v-0.929c-0.592,0.656-1.408,1.089-2.593,1.089
		C76,186.16,74.672,185.231,74.672,183.535z M80.258,182.975v-0.432c-0.416-0.192-0.96-0.32-1.553-0.32
		c-1.04,0-1.68,0.416-1.68,1.185v0.032c0,0.656,0.544,1.04,1.328,1.04C79.49,184.479,80.258,183.855,80.258,182.975z"/>
	<path fill="#FFFFFF" d="M84.977,183.567v-4.066h-1.024v-2.08h1.024v-2.193h2.433v2.193h2.017v2.08h-2.017v3.666
		c0,0.561,0.24,0.832,0.784,0.832c0.449,0,0.849-0.112,1.201-0.304v1.952c-0.513,0.305-1.105,0.497-1.921,0.497
		C85.984,186.145,84.977,185.552,84.977,183.567z"/>
	<path fill="#FFFFFF" d="M90.561,181.758v-0.031c0-2.449,1.872-4.466,4.497-4.466c1.616,0,2.625,0.544,3.426,1.44l-1.489,1.601
		c-0.544-0.576-1.088-0.944-1.952-0.944c-1.217,0-2.081,1.072-2.081,2.337v0.032c0,1.312,0.848,2.369,2.177,2.369
		c0.816,0,1.376-0.353,1.969-0.913l1.425,1.44c-0.832,0.913-1.793,1.569-3.506,1.569C92.449,186.192,90.561,184.207,90.561,181.758z
		"/>
	<path fill="#FFFFFF" d="M100.111,174.315h2.434v4.321c0.561-0.72,1.28-1.376,2.514-1.376c1.84,0,2.912,1.216,2.912,3.185V186
		h-2.433v-4.786c0-1.152-0.544-1.744-1.473-1.744s-1.521,0.592-1.521,1.744V186h-2.434V174.315z"/>
	<path fill="#FFFFFF" d="M110.16,175.115v-0.319h2.849v0.319l-0.753,7.075h-1.344L110.16,175.115z M110.287,183.439h2.594V186
		h-2.594V183.439z"/>
</g>
</svg>
